<?xml version="1.0" standalone="no"?>
<!DOCTYPE svg PUBLIC "-//W3C//DTD SVG 1.1//EN"
  "http://www.w3.org/Graphics/SVG/1.1/DTD/svg11.dtd">
<!-- Created with matplotlib (http://matplotlib.sourceforge.net/) -->
<svg width="585pt" height="441pt" viewBox="0 0 585 441"
   xmlns="http://www.w3.org/2000/svg"
   xmlns:xlink="http://www.w3.org/1999/xlink"
   version="1.1"
   id="svg1">
<g id="figure1">
<g id="patch1">
<path style="fill: #ffffff; stroke: #ffffff; stroke-width: 1.000000; stroke-linejoin: round; stroke-linecap: square;  opacity: 1.000000"  d="M0.000000 441.000000L585.000000 441.000000L585.000000 0.000000
L0.000000 0.000000L0.000000 441.000000"/>
</g>
<g id="axes1">
<g id="patch2">
<path style="fill: #ffffff; opacity: 1.000000"  d="M73.125000 396.900000L526.500000 396.900000L526.500000 44.100000
L73.125000 44.100000L73.125000 396.900000"/>
</g>
<g id="line2d1">
<defs>
  <clipPath id="pc3c5e41676658680e7b95047b5791c8e">
<rect x="73.125000" y="44.100000" width="453.375000" height="352.800000"/>
  </clipPath>
</defs><path style="fill: none; stroke: #ff0000; stroke-width: 1.000000; stroke-linejoin: round; stroke-linecap: square;  opacity: 1.000000" clip-path="url(#pc3c5e41676658680e7b95047b5791c8e)" d="M71.952985 378.109130L74.019868 377.077673L76.082822 376.818104
L80.216590 378.619643L82.279544 375.557088L84.346428 373.514181
L86.413311 373.240734L88.476265 370.469100L90.543149 369.878318
L92.610033 370.971789L94.672987 374.740026L96.739871 373.607360
L100.869708 373.450304L102.936592 375.681880L105.003476 371.252017
L107.066430 372.048700L109.133314 370.028388L111.200197 372.222335
L113.263151 372.902385L115.330035 368.882888L117.396919 368.303208
L119.459873 371.563019L121.526757 373.083212L125.660524 369.254470
L127.723478 368.316620L129.790362 371.227092L131.857245 371.581535
L133.920200 368.499626L135.987083 370.482047L138.053967 374.606721
L140.116921 374.416524L142.183805 374.754705L144.250688 372.834205
L146.313643 369.183849L148.380526 370.545682L150.447410 373.641171
L152.510364 377.808243L154.577248 378.282859L156.644131 373.785039
L158.707086 367.742957L160.773969 367.158508L162.840853 366.933011
L164.903807 368.842129L166.970691 369.408713L169.037574 366.521751
L173.167412 369.838397L175.234296 364.966219L179.364134 365.265970
L181.431017 366.896555L185.560855 367.921530L189.694622 368.879162
L191.757577 371.610801L193.824460 368.809883L195.891344 363.787039
L197.954298 362.106455L200.021182 361.181571L202.088065 358.212252
L204.151020 360.479930L212.414625 351.980906L216.544463 349.798527
L218.611346 351.841136L220.678230 350.777843L222.741184 355.517442
L224.808068 353.503614L226.874951 340.798788L228.937906 336.634529
L231.004789 339.557929L233.071673 338.204814L235.138557 332.838275
L237.201511 328.955883L241.335278 316.683983L243.398232 318.404543
L245.465116 316.912256L247.532000 304.446806L251.661837 292.017831
L253.728721 281.408277L255.791675 275.794483L257.858559 272.199118
L259.925443 264.419151L264.055280 234.377574L268.185118 222.294343
L274.381840 180.157352L280.578561 118.360977L282.645445 105.121441
L284.712328 99.231274L290.909050 74.492844L292.975934 80.398956
L295.038888 90.134072L297.105771 96.497997L299.172655 105.810358
L301.235609 106.943638L303.302493 110.529428L305.369377 118.271411
L307.432331 118.517940L309.499214 113.648650L311.566098 110.469743
L313.629052 108.528770L319.825774 76.444509L321.892657 64.649386
L323.959541 68.133800L328.089379 81.896274L330.156263 101.534868
L334.286100 146.084169L336.352984 167.162221L338.419868 179.389972
L340.482822 197.649390L344.616589 226.720276L346.679543 232.983198
L348.746427 242.996324L350.813311 262.761219L352.876265 275.927713
L354.943149 284.025444L357.010032 284.393635L361.139870 297.193596
L363.206754 309.283999L365.269708 315.751983L367.336592 319.159778
L373.533313 334.470779L377.663151 343.234812L379.730035 345.694046
L381.796918 346.121253L383.859872 347.712271L385.926756 352.274043
L390.060523 355.111994L392.123478 353.123929L394.190361 354.634938
L396.257245 359.218598L398.320199 360.146630L400.387083 365.628256
L402.453966 373.181384L404.516921 370.635527L406.583804 365.802860
L408.650688 365.688742L410.713642 367.728669L412.780526 369.054419
L416.910364 367.931589L418.977247 372.041025L421.044131 373.868531
L423.107085 372.175354L425.173969 370.962419L427.240852 369.069973
L429.303806 372.940648L431.370690 375.063956L433.437574 373.689139
L437.567412 374.101294L439.634295 376.162066L441.701179 378.889029
L443.764133 375.625324L445.831017 376.254035L447.897900 378.918797
L449.960855 377.766068L452.027738 380.358161L454.094622 376.928440
L456.157576 371.210438L458.224460 371.989647L460.291343 376.609503
L462.354298 376.466734L464.421181 375.503196L466.488065 377.886557
L468.551019 375.642425L470.617903 376.092358L472.684786 378.765093
L474.747741 380.021713L476.814624 379.214766L478.881508 377.601281
L480.944462 374.888551L483.011346 374.718268L485.078229 373.888743
L487.141184 376.907968L489.208067 380.899783L491.274951 382.219870
L493.341835 382.543893L495.404789 381.680203L497.471672 382.384210
L501.601510 377.028084L505.735278 373.903590L507.798232 377.781493
L509.865115 380.416878L511.931999 379.986021L513.994953 375.999179
L516.061837 375.428701L518.128720 378.121089L520.191675 380.086167
L522.258558 382.650559L524.325442 381.441331L526.388396 376.816371
L528.455280 375.524638L528.455280 375.524638"/>
</g>
<g id="line2d2">
<path style="fill: none; stroke: #008000; stroke-width: 1.000000; stroke-linejoin: round; stroke-linecap: butt; stroke-dasharray: 6.000000,6.000000; stroke-dashoffset: 0.000000; opacity: 1.000000" clip-path="url(#pc3c5e41676658680e7b95047b5791c8e)" d="M316.255771 396.900000L316.255771 44.100000"/>
</g>
<g id="matplotlib.axis1">
<g id="xtick1">
<g id="line2d3">
<defs><path id="m30e32995789d870ad79a2e54c91cf9c6" d="M0.000000 0.000000L0.000000 -4.000000"/></defs>
<g ><use style="fill: none; stroke: #000000; stroke-width: 0.500000; stroke-linejoin: round; stroke-linecap: butt;  opacity: 1.000000" xlink:href="#m30e32995789d870ad79a2e54c91cf9c6" x="198.649808" y="396.900000"/>
</g></g>
<g id="line2d4">
<defs><path id="m9281cae24120827b11d5ea8a7ad3e96b" d="M0.000000 0.000000L0.000000 4.000000"/></defs>
<g ><use style="fill: none; stroke: #000000; stroke-width: 0.500000; stroke-linejoin: round; stroke-linecap: butt;  opacity: 1.000000" xlink:href="#m9281cae24120827b11d5ea8a7ad3e96b" x="198.649808" y="44.100000"/>
</g></g>
<g id="text1">
<defs>
<path id="c_cc8d6d580d1b10c8632f7a42cd53db8a" d="M33.015625 -40.375000q-6.640625 0.000000 -10.531250 4.546875q-3.875000 4.531250 -3.875000 12.437500q0.000000 7.859375 3.875000 12.437500q3.890625 4.562500 10.531250 4.562500q6.640625 0.000000 10.515625 -4.562500q3.875000 -4.578125 3.875000 -12.437500q0.000000 -7.906250 -3.875000 -12.437500q-3.875000 -4.546875 -10.515625 -4.546875M52.593750 -71.296875l0.000000 8.984375q-3.718750 -1.750000 -7.500000 -2.671875q-3.781250 -0.937500 -7.500000 -0.937500q-9.765625 0.000000 -14.921875 6.593750q-5.140625 6.593750 -5.875000 19.921875q2.875000 -4.250000 7.218750 -6.515625q4.359375 -2.265625 9.578125 -2.265625q10.984375 0.000000 17.359375 6.671875q6.375000 6.656250 6.375000 18.125000q0.000000 11.234375 -6.640625 18.031250q-6.640625 6.781250 -17.671875 6.781250q-12.656250 0.000000 -19.343750 -9.687500q-6.687500 -9.703125 -6.687500 -28.109375q0.000000 -17.281250 8.203125 -27.562500q8.203125 -10.281250 22.015625 -10.281250q3.718750 0.000000 7.500000 0.734375q3.781250 0.734375 7.890625 2.187500"/>
<path id="c_1260a2df50f305f3db244e29828f968e" d="M10.796875 -72.906250l38.718750 0.000000l0.000000 8.312500l-29.687500 0.000000l0.000000 17.859375q2.140625 -0.734375 4.281250 -1.093750q2.156250 -0.359375 4.312500 -0.359375q12.203125 0.000000 19.328125 6.687500q7.140625 6.687500 7.140625 18.109375q0.000000 11.765625 -7.328125 18.296875q-7.328125 6.515625 -20.656250 6.515625q-4.593750 0.000000 -9.359375 -0.781250q-4.750000 -0.781250 -9.828125 -2.343750l0.000000 -9.921875q4.390625 2.390625 9.078125 3.562500q4.687500 1.171875 9.906250 1.171875q8.453125 0.000000 13.375000 -4.437500q4.937500 -4.437500 4.937500 -12.062500q0.000000 -7.609375 -4.937500 -12.046875q-4.921875 -4.453125 -13.375000 -4.453125q-3.953125 0.000000 -7.890625 0.875000q-3.921875 0.875000 -8.015625 2.734375z"/>
<path id="c_7a2040fe3b94fcd41d0a72c84e93b115" d="M31.781250 -66.406250q-7.609375 0.000000 -11.453125 7.500000q-3.828125 7.484375 -3.828125 22.531250q0.000000 14.984375 3.828125 22.484375q3.843750 7.500000 11.453125 7.500000q7.671875 0.000000 11.500000 -7.500000q3.843750 -7.500000 3.843750 -22.484375q0.000000 -15.046875 -3.843750 -22.531250q-3.828125 -7.500000 -11.500000 -7.500000M31.781250 -74.218750q12.265625 0.000000 18.734375 9.703125q6.468750 9.687500 6.468750 28.140625q0.000000 18.406250 -6.468750 28.109375q-6.468750 9.687500 -18.734375 9.687500q-12.250000 0.000000 -18.718750 -9.687500q-6.468750 -9.703125 -6.468750 -28.109375q0.000000 -18.453125 6.468750 -28.140625q6.468750 -9.703125 18.718750 -9.703125"/>
</defs>
<g style="fill: #000000; opacity: 1.000000" transform="translate(184.188871,409.806250)scale(0.120000)">
<use xlink:href="#c_cc8d6d580d1b10c8632f7a42cd53db8a"/>
<use xlink:href="#c_1260a2df50f305f3db244e29828f968e" x="63.623047"/>
<use xlink:href="#c_1260a2df50f305f3db244e29828f968e" x="127.246094"/>
<use xlink:href="#c_7a2040fe3b94fcd41d0a72c84e93b115" x="190.869141"/>
</g>
</g>
</g>
<g id="text2">
<defs>
<path id="c_251a4d58cac0151c5a1822fd57888890" d="M17.828125 1.125000l-4.640625 -63.718750q-0.343750 -1.468750 -2.203125 -1.828125q-1.859375 -0.375000 -4.593750 -0.375000q-0.968750 0.000000 -0.968750 -1.312500q0.343750 -1.281250 0.531250 -1.734375q0.203125 -0.468750 1.125000 -0.468750l23.828125 0.000000q0.984375 0.000000 0.984375 1.312500q-0.390625 2.203125 -1.281250 2.203125q-8.000000 0.000000 -8.484375 2.781250l3.562500 50.484375l25.000000 -43.546875l-0.484375 -7.515625q-0.343750 -1.468750 -2.203125 -1.828125q-1.859375 -0.375000 -4.593750 -0.375000q-1.015625 0.000000 -1.015625 -1.312500q0.328125 -1.281250 0.515625 -1.734375q0.203125 -0.468750 1.187500 -0.468750l23.828125 0.000000q0.968750 0.000000 0.968750 1.312500q-0.046875 0.250000 -0.187500 0.843750q-0.140625 0.578125 -0.390625 0.968750q-0.250000 0.390625 -0.734375 0.390625q-8.062500 0.000000 -8.500000 2.781250l0.000000 0.734375l3.625000 49.750000l27.187500 -47.453125q0.593750 -1.078125 0.593750 -2.093750q0.000000 -2.062500 -2.015625 -2.890625q-2.000000 -0.828125 -4.484375 -0.828125q-0.968750 0.000000 -0.968750 -1.312500q0.187500 -0.781250 0.312500 -1.218750q0.125000 -0.453125 0.437500 -0.718750q0.312500 -0.265625 0.953125 -0.265625l19.093750 0.000000q0.968750 0.000000 0.968750 1.312500q-0.046875 0.250000 -0.203125 0.859375q-0.140625 0.609375 -0.406250 0.984375q-0.265625 0.359375 -0.656250 0.359375q-7.125000 0.000000 -10.843750 6.500000q-0.281250 0.281250 -0.281250 0.281250l-33.890625 59.140625q-0.546875 1.078125 -1.718750 1.078125l-0.781250 0.000000q-1.218750 0.000000 -1.218750 -1.078125l-3.796875 -51.515625l-29.406250 51.515625q-0.734375 1.078125 -1.750000 1.078125l-0.828125 0.000000q-1.171875 0.000000 -1.171875 -1.078125"/>
<path id="c_93c5d2a957e9d9c519042af352de3d6d" d="M17.390625 1.125000q-6.312500 0.000000 -9.953125 -4.765625q-3.625000 -4.765625 -3.625000 -11.250000q0.000000 -6.406250 3.312500 -13.281250q3.328125 -6.890625 8.968750 -11.453125q5.640625 -4.562500 12.125000 -4.562500q2.984375 0.000000 5.328125 1.609375q2.343750 1.609375 3.656250 4.390625q1.125000 -4.000000 4.406250 -4.000000q1.265625 0.000000 2.109375 0.765625q0.859375 0.750000 0.859375 2.015625q0.000000 0.296875 -0.031250 0.453125q-0.015625 0.140625 -0.062500 0.328125l-6.984375 27.937500q-0.687500 2.968750 -0.687500 4.875000q0.000000 4.296875 2.890625 4.296875q3.125000 0.000000 4.750000 -3.968750q1.640625 -3.984375 2.765625 -9.218750q0.187500 -0.578125 0.781250 -0.578125l1.218750 0.000000q0.390625 0.000000 0.625000 0.343750q0.250000 0.343750 0.250000 0.625000q-1.750000 6.984375 -3.828125 11.218750q-2.078125 4.218750 -6.765625 4.218750q-3.359375 0.000000 -5.953125 -1.968750q-2.593750 -1.984375 -3.218750 -5.265625q-6.453125 7.234375 -12.937500 7.234375M17.484375 -1.515625q3.609375 0.000000 7.000000 -2.703125q3.390625 -2.718750 5.843750 -6.375000q0.093750 -0.093750 0.093750 -0.296875l5.375000 -21.734375l0.093750 -0.281250q-0.593750 -3.562500 -2.578125 -6.125000q-1.968750 -2.578125 -5.328125 -2.578125q-3.375000 0.000000 -6.281250 2.765625q-2.906250 2.765625 -4.906250 6.515625q-1.953125 4.000000 -3.734375 10.984375q-1.781250 6.984375 -1.781250 10.843750q0.000000 3.468750 1.484375 6.234375q1.500000 2.750000 4.718750 2.750000"/>
<path id="c_d7f00dfe2271fc67af54c69adc155ddd" d="M10.687500 -11.281250q0.000000 -2.250000 0.531250 -4.921875q0.546875 -2.687500 1.078125 -4.421875q0.546875 -1.734375 2.453125 -6.765625q1.906250 -5.031250 1.953125 -5.234375q1.312500 -3.656250 1.312500 -6.000000q0.000000 -2.984375 -2.187500 -2.984375q-3.968750 0.000000 -6.531250 4.078125q-2.562500 4.078125 -3.781250 9.109375q-0.187500 0.640625 -0.828125 0.640625l-1.171875 0.000000q-0.828125 0.000000 -0.828125 -0.937500l0.000000 -0.281250q1.609375 -5.968750 4.921875 -10.578125q3.328125 -4.609375 8.406250 -4.609375q3.562500 0.000000 6.031250 2.343750q2.468750 2.343750 2.468750 5.953125q0.000000 1.859375 -0.828125 3.906250q-1.953125 5.078125 -3.078125 8.140625q-1.125000 3.046875 -2.078125 6.828125q-0.953125 3.781250 -0.953125 7.000000q0.000000 3.765625 1.734375 6.140625q1.734375 2.359375 5.390625 2.359375q6.937500 0.000000 12.500000 -10.687500q1.765625 -3.468750 3.328125 -8.156250q1.562500 -4.687500 1.562500 -7.625000q0.000000 -3.015625 -0.984375 -4.703125q-0.968750 -1.687500 -2.531250 -3.515625q-1.562500 -1.828125 -1.562500 -2.906250q0.000000 -1.953125 1.609375 -3.562500q1.609375 -1.609375 3.562500 -1.609375q2.390625 0.000000 3.437500 2.203125q1.062500 2.187500 1.062500 4.968750q0.000000 3.312500 -0.953125 7.906250q-0.953125 4.593750 -2.640625 9.531250q-1.687500 4.921875 -3.109375 7.750000q-6.578125 13.046875 -15.375000 13.046875q-6.296875 0.000000 -10.109375 -3.140625q-3.812500 -3.156250 -3.812500 -9.265625"/>
<path id="c_67a1adfdf9fbdb7189c9402c3f73ee06" d="M20.125000 1.125000q-4.796875 0.000000 -8.390625 -2.484375q-3.578125 -2.500000 -5.468750 -6.718750q-1.875000 -4.234375 -1.875000 -8.921875q0.000000 -7.125000 3.593750 -13.390625q3.593750 -6.281250 9.734375 -10.031250q6.156250 -3.765625 13.187500 -3.765625q4.296875 0.000000 7.500000 2.218750q3.203125 2.218750 3.203125 6.375000q0.000000 5.765625 -4.593750 8.578125q-4.593750 2.796875 -10.359375 3.453125q-5.750000 0.656250 -12.734375 0.656250l-0.296875 0.000000q-1.609375 5.968750 -1.609375 10.203125q0.000000 4.453125 2.046875 7.828125q2.046875 3.359375 6.250000 3.359375q5.953125 0.000000 11.437500 -2.734375q5.500000 -2.734375 8.968750 -7.562500q0.296875 -0.296875 0.781250 -0.296875q0.500000 0.000000 1.000000 0.562500q0.515625 0.562500 0.515625 1.046875q0.000000 0.390625 -0.187500 0.593750q-3.671875 5.125000 -9.875000 8.078125q-6.187500 2.953125 -12.828125 2.953125M14.203125 -25.484375q5.812500 0.000000 10.750000 -0.531250q4.937500 -0.546875 8.937500 -2.718750q4.000000 -2.171875 4.000000 -6.765625q0.000000 -1.859375 -1.031250 -3.250000q-1.015625 -1.390625 -2.656250 -2.125000q-1.640625 -0.734375 -3.390625 -0.734375q-4.250000 0.000000 -7.640625 2.296875q-3.390625 2.296875 -5.593750 5.984375q-2.203125 3.687500 -3.375000 7.843750"/>
<path id="c_8b6646949194adb0e90a6189c9da3b04" d="M4.390625 -8.109375q0.000000 -0.296875 0.078125 -0.875000q0.078125 -0.593750 0.140625 -1.140625q0.078125 -0.562500 0.078125 -0.859375l12.406250 -49.515625q0.390625 -1.703125 0.484375 -2.687500q0.000000 -1.609375 -6.500000 -1.609375q-0.968750 0.000000 -0.968750 -1.312500q0.046875 -0.250000 0.218750 -0.875000q0.171875 -0.640625 0.437500 -0.984375q0.265625 -0.343750 0.765625 -0.343750l13.468750 -1.078125q1.218750 0.000000 1.218750 1.281250l-14.406250 57.515625q-0.734375 1.609375 -0.734375 4.781250q0.000000 4.296875 2.937500 4.296875q3.078125 0.000000 4.609375 -3.828125q1.546875 -3.843750 2.765625 -9.359375q0.187500 -0.578125 0.828125 -0.578125l1.171875 0.000000q0.390625 0.000000 0.656250 0.312500q0.265625 0.312500 0.265625 0.656250q-1.171875 4.843750 -2.125000 7.656250q-0.953125 2.796875 -3.046875 5.296875q-2.093750 2.484375 -5.328125 2.484375q-4.000000 0.000000 -6.718750 -2.578125q-2.703125 -2.593750 -2.703125 -6.656250"/>
<path id="c_4e79783b4799b416f9678acefc53a48a" d="M7.718750 -1.703125q0.000000 -0.593750 0.093750 -0.890625l7.468750 -29.828125q0.734375 -2.781250 0.734375 -4.890625q0.000000 -4.296875 -2.921875 -4.296875q-3.125000 0.000000 -4.640625 3.750000q-1.515625 3.734375 -2.937500 9.437500q0.000000 0.296875 -0.296875 0.468750q-0.281250 0.171875 -0.531250 0.171875l-1.171875 0.000000q-0.343750 0.000000 -0.593750 -0.359375q-0.234375 -0.375000 -0.234375 -0.671875q1.078125 -4.343750 2.078125 -7.359375q1.000000 -3.031250 3.125000 -5.515625q2.125000 -2.500000 5.296875 -2.500000q3.750000 0.000000 6.625000 2.375000q2.890625 2.359375 2.890625 6.015625q2.984375 -3.906250 6.984375 -6.140625q4.000000 -2.250000 8.500000 -2.250000q3.562500 0.000000 6.140625 1.218750q2.593750 1.218750 4.031250 3.687500q1.453125 2.468750 1.453125 5.875000q0.000000 4.109375 -1.843750 9.921875q-1.828125 5.812500 -4.562500 12.984375q-1.406250 3.265625 -1.406250 6.000000q0.000000 2.984375 2.281250 2.984375q3.906250 0.000000 6.515625 -4.187500q2.625000 -4.203125 3.703125 -9.000000q0.187500 -0.578125 0.828125 -0.578125l1.171875 0.000000q0.390625 0.000000 0.656250 0.250000q0.265625 0.234375 0.265625 0.625000q0.000000 0.093750 -0.093750 0.296875q-1.375000 5.656250 -4.765625 10.453125q-3.390625 4.781250 -8.468750 4.781250q-3.515625 0.000000 -6.015625 -2.421875q-2.484375 -2.421875 -2.484375 -5.875000q0.000000 -1.859375 0.781250 -3.906250q1.265625 -3.281250 2.906250 -7.812500q1.640625 -4.546875 2.687500 -8.687500q1.046875 -4.156250 1.046875 -7.328125q0.000000 -2.796875 -1.156250 -4.750000q-1.140625 -1.953125 -3.875000 -1.953125q-3.656250 0.000000 -6.734375 1.625000q-3.078125 1.609375 -5.375000 4.265625q-2.296875 2.656250 -4.187500 6.328125l-6.796875 27.187500q-0.343750 1.375000 -1.546875 2.343750q-1.187500 0.984375 -2.656250 0.984375q-1.218750 0.000000 -2.093750 -0.781250q-0.875000 -0.781250 -0.875000 -2.046875"/>
<path id="c_bbd98d2466ee4a4cd0618ec33b05d571" d="M1.421875 14.312500q0.000000 -2.453125 1.671875 -4.281250q1.687500 -1.828125 4.078125 -1.828125q1.625000 0.000000 2.718750 1.000000q1.093750 1.000000 1.093750 2.609375q0.000000 1.812500 -1.031250 3.250000q-1.015625 1.437500 -2.625000 2.031250q2.687500 0.828125 8.390625 0.828125q4.593750 0.000000 8.406250 -3.546875q3.812500 -3.531250 4.984375 -8.171875l2.875000 -11.718750q-5.421875 5.515625 -11.281250 5.515625q-4.296875 0.000000 -7.359375 -2.187500q-3.046875 -2.203125 -4.656250 -5.859375q-1.609375 -3.671875 -1.609375 -7.781250q0.000000 -4.578125 1.875000 -9.609375q1.890625 -5.031250 5.281250 -9.328125q3.390625 -4.296875 7.781250 -6.859375q4.406250 -2.562500 9.281250 -2.562500q2.937500 0.000000 5.281250 1.609375q2.343750 1.609375 3.703125 4.296875q0.984375 -3.906250 4.296875 -3.906250q1.265625 0.000000 2.140625 0.765625q0.890625 0.750000 0.890625 2.015625q0.000000 0.296875 -0.031250 0.453125q-0.015625 0.140625 -0.062500 0.328125l-11.437500 45.406250q-0.781250 3.125000 -2.875000 5.718750q-2.093750 2.593750 -4.937500 4.328125q-2.828125 1.734375 -6.203125 2.703125q-3.359375 0.984375 -6.484375 0.984375q-5.718750 0.000000 -9.937500 -1.109375q-4.218750 -1.093750 -4.218750 -5.093750M20.906250 -2.593750q6.390625 0.000000 12.593750 -8.781250l5.515625 -21.828125q-0.687500 -3.468750 -2.734375 -5.937500q-2.046875 -2.468750 -5.171875 -2.468750q-3.328125 0.000000 -6.281250 2.718750q-2.953125 2.703125 -4.906250 6.468750q-1.859375 3.609375 -3.593750 10.375000q-1.734375 6.765625 -1.734375 10.671875q0.000000 3.421875 1.562500 6.109375q1.562500 2.671875 4.750000 2.671875"/>
<path id="c_67cd85fdc1376f0c16fbfb0d8c843807" d="M5.328125 -1.812500q0.000000 -0.578125 0.093750 -0.875000l14.500000 -57.812500q0.390625 -1.703125 0.484375 -2.687500q0.000000 -1.609375 -6.484375 -1.609375q-1.031250 0.000000 -1.031250 -1.312500q0.046875 -0.250000 0.218750 -0.875000q0.171875 -0.640625 0.437500 -0.984375q0.265625 -0.343750 0.765625 -0.343750l13.468750 -1.078125l0.296875 0.000000q0.000000 0.109375 0.343750 0.281250q0.343750 0.156250 0.390625 0.218750q0.187500 0.484375 0.187500 0.781250l-7.812500 31.187500q6.156250 -7.265625 14.609375 -7.265625q3.515625 0.000000 6.078125 1.218750q2.562500 1.218750 4.000000 3.687500q1.437500 2.468750 1.437500 5.875000q0.000000 4.109375 -1.828125 9.921875q-1.828125 5.812500 -4.562500 12.984375q-1.421875 3.265625 -1.421875 6.000000q0.000000 2.984375 2.296875 2.984375q3.906250 0.000000 6.515625 -4.171875q2.609375 -4.171875 3.687500 -9.015625q0.203125 -0.578125 0.781250 -0.578125l1.218750 0.000000q0.390625 0.000000 0.640625 0.265625q0.250000 0.265625 0.250000 0.609375q0.000000 0.093750 -0.109375 0.296875q-0.875000 3.609375 -2.609375 7.109375q-1.734375 3.484375 -4.375000 5.812500q-2.625000 2.312500 -6.187500 2.312500q-3.515625 0.000000 -6.015625 -2.421875q-2.484375 -2.421875 -2.484375 -5.875000q0.000000 -1.859375 0.781250 -3.906250q2.828125 -7.531250 4.703125 -13.437500q1.890625 -5.906250 1.890625 -10.390625q0.000000 -2.890625 -1.125000 -4.796875q-1.125000 -1.906250 -3.765625 -1.906250q-5.375000 0.000000 -9.375000 3.296875q-4.000000 3.296875 -6.937500 8.718750l-6.781250 27.296875q-0.390625 1.515625 -1.515625 2.468750q-1.125000 0.953125 -2.578125 0.953125q-1.281250 0.000000 -2.187500 -0.859375q-0.890625 -0.859375 -0.890625 -2.078125"/>
<path id="c_d385b7bbe58e08154ff387bfd902116e" d="M6.203125 -8.109375q0.000000 -1.468750 0.296875 -2.781250l7.218750 -28.703125l-10.500000 0.000000q-1.015625 0.000000 -1.015625 -1.328125q0.390625 -2.187500 1.312500 -2.187500l11.078125 0.000000l4.015625 -16.312500q0.390625 -1.328125 1.562500 -2.250000q1.171875 -0.921875 2.625000 -0.921875q1.281250 0.000000 2.125000 0.765625q0.859375 0.750000 0.859375 2.015625q0.000000 0.296875 -0.031250 0.468750q-0.015625 0.156250 -0.062500 0.359375l-4.000000 15.875000l10.296875 0.000000q1.031250 0.000000 1.031250 1.312500q-0.062500 0.250000 -0.203125 0.843750q-0.140625 0.578125 -0.390625 0.968750q-0.250000 0.390625 -0.734375 0.390625l-10.890625 0.000000l-7.171875 28.906250q-0.734375 2.828125 -0.734375 4.875000q0.000000 4.296875 2.937500 4.296875q4.390625 0.000000 7.781250 -4.125000q3.390625 -4.125000 5.203125 -9.062500q0.390625 -0.578125 0.781250 -0.578125l1.218750 0.000000q0.390625 0.000000 0.625000 0.265625q0.250000 0.265625 0.250000 0.609375q0.000000 0.203125 -0.093750 0.296875q-2.203125 6.046875 -6.406250 10.640625q-4.187500 4.593750 -9.609375 4.593750q-3.953125 0.000000 -6.671875 -2.578125q-2.703125 -2.593750 -2.703125 -6.656250"/>
<path id="c_875268a6b49edebf59503602ec79e30e" d="M11.812500 25.000000l0.000000 -100.000000l13.671875 0.000000l0.000000 4.000000l-9.656250 0.000000l0.000000 92.000000l9.656250 0.000000l0.000000 4.000000z"/>
<path id="c_c5a9fef654eb9e987f621c86ed1a9b2e" d="M25.000000 -5.609375q-5.171875 0.000000 -9.640625 -2.609375q-4.468750 -2.625000 -7.109375 -7.156250q-2.640625 -4.546875 -2.640625 -9.625000q0.000000 -5.078125 2.640625 -9.609375q2.640625 -4.546875 7.109375 -7.156250q4.468750 -2.625000 9.640625 -2.625000q5.171875 0.000000 9.609375 2.640625q4.453125 2.640625 7.062500 7.156250q2.609375 4.515625 2.609375 9.593750q0.000000 5.078125 -2.609375 9.593750q-2.609375 4.515625 -7.062500 7.156250q-4.437500 2.640625 -9.609375 2.640625M25.000000 -9.625000q6.250000 0.000000 10.765625 -4.562500q4.515625 -4.562500 4.515625 -10.812500q0.000000 -4.000000 -2.078125 -7.593750q-2.062500 -3.593750 -5.578125 -5.687500q-3.515625 -2.093750 -7.625000 -2.093750q-3.078125 0.000000 -5.859375 1.203125q-2.781250 1.187500 -4.984375 3.390625q-2.187500 2.187500 -3.359375 4.953125q-1.171875 2.750000 -1.171875 5.828125q0.000000 6.250000 4.515625 10.812500q4.515625 4.562500 10.859375 4.562500"/>
<path id="c_53145adbfd3ed9c233deb3507c6765d3" d="M3.218750 -0.000000l0.000000 -3.515625q8.937500 0.000000 10.984375 -5.906250l21.000000 -61.093750q0.296875 -1.062500 1.609375 -1.062500l1.281250 0.000000q1.312500 0.000000 1.609375 1.062500l21.921875 63.828125q0.921875 2.093750 3.531250 2.640625q2.625000 0.531250 6.531250 0.531250l0.000000 3.515625l-27.890625 0.000000l0.000000 -3.515625q8.296875 0.000000 8.296875 -2.687500l0.000000 -0.484375l-5.406250 -15.625000l-24.281250 0.000000l-4.484375 12.890625q-0.093750 0.343750 -0.093750 1.015625q0.000000 2.500000 2.359375 3.703125q2.375000 1.187500 5.109375 1.187500l0.000000 3.515625zM23.578125 -25.781250l21.937500 0.000000l-11.000000 -31.937500z"/>
<path id="c_eb1537f7a8ede276addc63084ba564df" d="M2.203125 25.000000l0.000000 -4.000000l9.718750 0.000000l0.000000 -92.000000l-9.718750 0.000000l0.000000 -4.000000l13.718750 0.000000l0.000000 100.000000z"/>
</defs>
<g id="mathtext1">
<g style="fill: #000000" transform="translate(260.812500,428.978125)">
<use xlink:href="#c_251a4d58cac0151c5a1822fd57888890" transform="translate(0.000000,-3.093750)scale(0.120000)"/>
<use xlink:href="#c_93c5d2a957e9d9c519042af352de3d6d" transform="translate(11.326172,-3.093750)scale(0.120000)"/>
<use xlink:href="#c_d7f00dfe2271fc67af54c69adc155ddd" transform="translate(17.660156,-3.093750)scale(0.120000)"/>
<use xlink:href="#c_67a1adfdf9fbdb7189c9402c3f73ee06" transform="translate(23.466797,-3.093750)scale(0.120000)"/>
<use xlink:href="#c_8b6646949194adb0e90a6189c9da3b04" transform="translate(29.044922,-3.093750)scale(0.120000)"/>
<use xlink:href="#c_67a1adfdf9fbdb7189c9402c3f73ee06" transform="translate(32.619141,-3.093750)scale(0.120000)"/>
<use xlink:href="#c_4e79783b4799b416f9678acefc53a48a" transform="translate(38.197266,-3.093750)scale(0.120000)"/>
<use xlink:href="#c_bbd98d2466ee4a4cd0618ec33b05d571" transform="translate(45.398438,-3.093750)scale(0.120000)"/>
<use xlink:href="#c_67cd85fdc1376f0c16fbfb0d8c843807" transform="translate(51.123047,-3.093750)scale(0.120000)"/>
<use xlink:href="#c_d385b7bbe58e08154ff387bfd902116e" transform="translate(58.037109,-3.093750)scale(0.120000)"/>
<use xlink:href="#c_875268a6b49edebf59503602ec79e30e" transform="translate(62.367188,-3.093750)scale(0.120000)"/>
<use xlink:href="#c_c5a9fef654eb9e987f621c86ed1a9b2e" transform="translate(68.345703,-11.343750)scale(0.060000)"/>
<use xlink:href="#c_53145adbfd3ed9c233deb3507c6765d3" transform="translate(65.689453,-3.093750)scale(0.120000)"/>
<use xlink:href="#c_eb1537f7a8ede276addc63084ba564df" transform="translate(73.892578,-3.093750)scale(0.120000)"/>
</g>
</g>
</g>
</g>
<g id="matplotlib.axis2">
<g id="ytick1">
<g id="line2d5">
<defs><path id="m3400efa6b1638b3fea9e19e898273957" d="M0.000000 0.000000L4.000000 0.000000"/></defs>
<g ><use style="fill: none; stroke: #000000; stroke-width: 0.500000; stroke-linejoin: round; stroke-linecap: butt;  opacity: 1.000000" xlink:href="#m3400efa6b1638b3fea9e19e898273957" x="73.125000" y="370.865793"/>
</g></g>
<g id="line2d6">
<defs><path id="m20b58b2501143cb5e0a5e8f1ef6f1643" d="M0.000000 0.000000L-4.000000 0.000000"/></defs>
<g ><use style="fill: none; stroke: #000000; stroke-width: 0.500000; stroke-linejoin: round; stroke-linecap: butt;  opacity: 1.000000" xlink:href="#m20b58b2501143cb5e0a5e8f1ef6f1643" x="526.500000" y="370.865793"/>
</g></g>
<g id="text3">
<defs>
<path id="c_42baa63129a918535c52adb20d687ea7" d="M12.406250 -8.296875l16.109375 0.000000l0.000000 -55.625000l-17.531250 3.515625l0.000000 -8.984375l17.437500 -3.515625l9.859375 0.000000l0.000000 64.609375l16.109375 0.000000l0.000000 8.296875l-41.984375 0.000000z"/>
</defs>
<g style="fill: #000000; opacity: 1.000000" transform="translate(33.031250,375.232981)scale(0.120000)">
<use xlink:href="#c_42baa63129a918535c52adb20d687ea7"/>
<use xlink:href="#c_7a2040fe3b94fcd41d0a72c84e93b115" x="63.623047"/>
<use xlink:href="#c_7a2040fe3b94fcd41d0a72c84e93b115" x="127.246094"/>
<use xlink:href="#c_7a2040fe3b94fcd41d0a72c84e93b115" x="190.869141"/>
<use xlink:href="#c_7a2040fe3b94fcd41d0a72c84e93b115" x="254.492188"/>
</g>
</g>
</g>
<g id="ytick2">
<g id="line2d7">
<g ><use style="fill: none; stroke: #000000; stroke-width: 0.500000; stroke-linejoin: round; stroke-linecap: butt;  opacity: 1.000000" xlink:href="#m3400efa6b1638b3fea9e19e898273957" x="73.125000" y="275.488138"/>
</g></g>
<g id="line2d8">
<g ><use style="fill: none; stroke: #000000; stroke-width: 0.500000; stroke-linejoin: round; stroke-linecap: butt;  opacity: 1.000000" xlink:href="#m20b58b2501143cb5e0a5e8f1ef6f1643" x="526.500000" y="275.488138"/>
</g></g>
<g id="text4">
<g style="fill: #000000; opacity: 1.000000" transform="translate(33.031250,279.855325)scale(0.120000)">
<use xlink:href="#c_42baa63129a918535c52adb20d687ea7"/>
<use xlink:href="#c_1260a2df50f305f3db244e29828f968e" x="63.623047"/>
<use xlink:href="#c_7a2040fe3b94fcd41d0a72c84e93b115" x="127.246094"/>
<use xlink:href="#c_7a2040fe3b94fcd41d0a72c84e93b115" x="190.869141"/>
<use xlink:href="#c_7a2040fe3b94fcd41d0a72c84e93b115" x="254.492188"/>
</g>
</g>
</g>
<g id="ytick3">
<g id="line2d9">
<g ><use style="fill: none; stroke: #000000; stroke-width: 0.500000; stroke-linejoin: round; stroke-linecap: butt;  opacity: 1.000000" xlink:href="#m3400efa6b1638b3fea9e19e898273957" x="73.125000" y="180.110483"/>
</g></g>
<g id="line2d10">
<g ><use style="fill: none; stroke: #000000; stroke-width: 0.500000; stroke-linejoin: round; stroke-linecap: butt;  opacity: 1.000000" xlink:href="#m20b58b2501143cb5e0a5e8f1ef6f1643" x="526.500000" y="180.110483"/>
</g></g>
<g id="text5">
<defs>
<path id="c_ed3f3ed3ebfbd18bcb9c012009a68ad1" d="M19.187500 -8.296875l34.421875 0.000000l0.000000 8.296875l-46.281250 0.000000l0.000000 -8.296875q5.609375 -5.812500 15.296875 -15.593750q9.703125 -9.796875 12.187500 -12.640625q4.734375 -5.312500 6.609375 -9.000000q1.890625 -3.687500 1.890625 -7.250000q0.000000 -5.812500 -4.078125 -9.468750q-4.078125 -3.671875 -10.625000 -3.671875q-4.640625 0.000000 -9.796875 1.609375q-5.140625 1.609375 -11.000000 4.890625l0.000000 -9.968750q5.953125 -2.390625 11.125000 -3.609375q5.187500 -1.218750 9.484375 -1.218750q11.328125 0.000000 18.062500 5.671875q6.734375 5.656250 6.734375 15.125000q0.000000 4.500000 -1.687500 8.531250q-1.671875 4.015625 -6.125000 9.484375q-1.218750 1.421875 -7.765625 8.187500q-6.531250 6.765625 -18.453125 18.921875"/>
</defs>
<g style="fill: #000000; opacity: 1.000000" transform="translate(32.593750,184.477670)scale(0.120000)">
<use xlink:href="#c_ed3f3ed3ebfbd18bcb9c012009a68ad1"/>
<use xlink:href="#c_7a2040fe3b94fcd41d0a72c84e93b115" x="63.623047"/>
<use xlink:href="#c_7a2040fe3b94fcd41d0a72c84e93b115" x="127.246094"/>
<use xlink:href="#c_7a2040fe3b94fcd41d0a72c84e93b115" x="190.869141"/>
<use xlink:href="#c_7a2040fe3b94fcd41d0a72c84e93b115" x="254.492188"/>
</g>
</g>
</g>
<g id="ytick4">
<g id="line2d11">
<g ><use style="fill: none; stroke: #000000; stroke-width: 0.500000; stroke-linejoin: round; stroke-linecap: butt;  opacity: 1.000000" xlink:href="#m3400efa6b1638b3fea9e19e898273957" x="73.125000" y="84.732828"/>
</g></g>
<g id="line2d12">
<g ><use style="fill: none; stroke: #000000; stroke-width: 0.500000; stroke-linejoin: round; stroke-linecap: butt;  opacity: 1.000000" xlink:href="#m20b58b2501143cb5e0a5e8f1ef6f1643" x="526.500000" y="84.732828"/>
</g></g>
<g id="text6">
<g style="fill: #000000; opacity: 1.000000" transform="translate(32.593750,89.100015)scale(0.120000)">
<use xlink:href="#c_ed3f3ed3ebfbd18bcb9c012009a68ad1"/>
<use xlink:href="#c_1260a2df50f305f3db244e29828f968e" x="63.623047"/>
<use xlink:href="#c_7a2040fe3b94fcd41d0a72c84e93b115" x="127.246094"/>
<use xlink:href="#c_7a2040fe3b94fcd41d0a72c84e93b115" x="190.869141"/>
<use xlink:href="#c_7a2040fe3b94fcd41d0a72c84e93b115" x="254.492188"/>
</g>
</g>
</g>
<g id="text7">
<defs>
<path id="c_de39f0a09a21a7fd110da32e008bba47" d="M4.687500 -0.000000q-0.968750 0.000000 -0.968750 -1.312500q0.046875 -0.250000 0.187500 -0.859375q0.140625 -0.609375 0.406250 -0.968750q0.281250 -0.375000 0.671875 -0.375000q6.093750 0.000000 8.500000 -0.687500q1.312500 -0.437500 1.890625 -2.687500l13.734375 -54.921875q0.187500 -0.984375 0.187500 -1.375000q0.000000 -1.078125 -1.218750 -1.218750q-1.859375 -0.390625 -7.171875 -0.390625q-0.984375 0.000000 -0.984375 -1.312500q0.046875 -0.250000 0.187500 -0.859375q0.156250 -0.609375 0.421875 -0.968750q0.265625 -0.375000 0.656250 -0.375000l52.843750 0.000000q0.968750 0.000000 0.968750 1.312500l-2.390625 20.703125q0.000000 0.296875 -0.343750 0.593750q-0.343750 0.296875 -0.687500 0.296875l-0.875000 0.000000q-1.031250 0.000000 -1.031250 -1.281250q0.640625 -4.531250 0.640625 -7.421875q0.000000 -4.968750 -2.156250 -7.312500q-2.140625 -2.343750 -5.421875 -2.859375q-3.265625 -0.515625 -9.015625 -0.515625l-10.703125 0.000000q-2.734375 0.000000 -3.609375 0.468750q-0.875000 0.453125 -1.609375 2.953125l-6.406250 25.484375l7.531250 0.000000q3.703125 0.000000 6.000000 -0.390625q2.296875 -0.390625 3.812500 -1.515625q1.515625 -1.125000 2.515625 -3.250000q1.000000 -2.125000 1.828125 -5.640625q0.296875 -0.921875 1.031250 -0.921875l0.875000 0.000000q1.015625 0.000000 1.015625 1.312500l-6.093750 24.718750q-0.437500 0.875000 -1.031250 0.875000l-0.875000 0.000000q-0.984375 0.000000 -0.984375 -1.312500q0.250000 -1.031250 0.390625 -1.718750q0.156250 -0.687500 0.375000 -1.968750q0.218750 -1.296875 0.218750 -2.281250q0.000000 -2.875000 -2.546875 -3.656250q-2.531250 -0.781250 -6.640625 -0.781250l-8.203125 0.000000l-6.484375 25.921875q-0.250000 0.984375 -0.250000 0.984375q0.000000 1.171875 0.734375 1.312500q2.593750 0.687500 10.203125 0.687500q0.984375 0.000000 0.984375 1.312500q-0.343750 1.421875 -0.546875 1.812500q-0.187500 0.390625 -1.171875 0.390625z"/>
<path id="c_ada8429b49f97e9b59ddeeed8d06fc73" d="M10.593750 -10.890625q0.000000 -3.265625 0.875000 -6.703125q0.890625 -3.453125 2.468750 -7.671875q1.593750 -4.234375 2.765625 -7.359375q1.312500 -3.656250 1.312500 -6.000000q0.000000 -2.984375 -2.187500 -2.984375q-3.968750 0.000000 -6.531250 4.078125q-2.562500 4.078125 -3.781250 9.109375q-0.187500 0.640625 -0.828125 0.640625l-1.171875 0.000000q-0.828125 0.000000 -0.828125 -0.937500l0.000000 -0.281250q1.609375 -5.968750 4.921875 -10.578125q3.328125 -4.609375 8.406250 -4.609375q3.562500 0.000000 6.031250 2.343750q2.468750 2.343750 2.468750 5.953125q0.000000 1.859375 -0.828125 3.906250q-0.437500 1.218750 -2.000000 5.328125q-1.562500 4.093750 -2.406250 6.781250q-0.828125 2.687500 -1.359375 5.281250q-0.531250 2.578125 -0.531250 5.171875q0.000000 3.312500 1.406250 5.609375q1.421875 2.296875 4.593750 2.296875q6.390625 0.000000 11.234375 -7.906250q0.093750 -0.390625 0.156250 -0.750000q0.078125 -0.375000 0.125000 -0.718750l7.187500 -29.000000q0.343750 -1.328125 1.562500 -2.265625q1.218750 -0.953125 2.640625 -0.953125q1.218750 0.000000 2.109375 0.781250q0.906250 0.781250 0.906250 2.046875q0.000000 0.578125 -0.093750 0.781250l-7.218750 28.812500q-0.687500 2.968750 -0.687500 4.875000q0.000000 4.296875 2.875000 4.296875q3.218750 0.000000 4.812500 -3.968750q1.593750 -3.984375 2.703125 -9.218750q0.203125 -0.578125 0.781250 -0.578125l1.234375 0.000000q0.390625 0.000000 0.625000 0.343750q0.250000 0.343750 0.250000 0.625000q-1.078125 4.296875 -2.078125 7.375000q-1.000000 3.078125 -3.156250 5.578125q-2.140625 2.484375 -5.359375 2.484375q-3.171875 0.000000 -5.687500 -1.734375q-2.515625 -1.734375 -3.406250 -4.718750q-2.281250 2.937500 -5.312500 4.703125q-3.031250 1.750000 -6.406250 1.750000q-5.750000 0.000000 -9.171875 -3.140625q-3.421875 -3.156250 -3.421875 -8.875000"/>
<path id="c_277960698c3e9ebfcde4d2161536ce57" d="M7.812500 -2.875000q1.765625 1.359375 4.984375 1.359375q3.125000 0.000000 5.515625 -3.000000q2.390625 -3.000000 3.265625 -6.562500l4.546875 -17.734375q1.078125 -4.828125 1.078125 -6.593750q0.000000 -2.484375 -1.390625 -4.343750q-1.390625 -1.859375 -3.890625 -1.859375q-3.171875 0.000000 -5.953125 1.984375q-2.781250 1.984375 -4.687500 5.031250q-1.906250 3.046875 -2.687500 6.171875q-0.187500 0.640625 -0.781250 0.640625l-1.218750 0.000000q-0.781250 0.000000 -0.781250 -0.937500l0.000000 -0.281250q0.968750 -3.718750 3.312500 -7.250000q2.343750 -3.546875 5.734375 -5.734375q3.406250 -2.203125 7.265625 -2.203125q3.656250 0.000000 6.609375 1.953125q2.953125 1.953125 4.171875 5.312500q1.718750 -3.062500 4.375000 -5.156250q2.656250 -2.109375 5.828125 -2.109375q2.156250 0.000000 4.390625 0.765625q2.250000 0.750000 3.671875 2.312500q1.421875 1.562500 1.421875 3.906250q0.000000 2.531250 -1.640625 4.375000q-1.640625 1.828125 -4.171875 1.828125q-1.609375 0.000000 -2.687500 -1.031250q-1.078125 -1.031250 -1.078125 -2.593750q0.000000 -2.093750 1.437500 -3.671875q1.453125 -1.593750 3.453125 -1.890625q-1.812500 -1.421875 -4.984375 -1.421875q-3.218750 0.000000 -5.593750 2.984375q-2.359375 2.984375 -3.343750 6.640625l-4.390625 17.671875q-1.078125 4.015625 -1.078125 6.593750q0.000000 2.546875 1.437500 4.375000q1.437500 1.828125 3.843750 1.828125q4.687500 0.000000 8.359375 -4.125000q3.687500 -4.125000 4.859375 -9.062500q0.203125 -0.578125 0.781250 -0.578125l1.234375 0.000000q0.390625 0.000000 0.625000 0.265625q0.250000 0.265625 0.250000 0.609375q0.000000 0.093750 -0.093750 0.296875q-1.421875 5.953125 -5.968750 10.593750q-4.531250 4.640625 -10.250000 4.640625q-3.656250 0.000000 -6.609375 -1.968750q-2.953125 -1.984375 -4.187500 -5.359375q-1.562500 2.937500 -4.328125 5.140625q-2.750000 2.187500 -5.875000 2.187500q-2.140625 0.000000 -4.421875 -0.765625q-2.265625 -0.750000 -3.687500 -2.312500q-1.406250 -1.562500 -1.406250 -3.953125q0.000000 -2.343750 1.625000 -4.265625q1.640625 -1.937500 4.093750 -1.937500q1.656250 0.000000 2.781250 1.000000q1.125000 1.000000 1.125000 2.609375q0.000000 2.109375 -1.406250 3.671875q-1.390625 1.562500 -3.484375 1.953125"/>
<path id="c_1a459ac34855d27ec37ccb0e66298d36" d="M9.281250 -0.000000l0.000000 -3.515625q12.500000 0.000000 12.500000 -3.171875l0.000000 -52.500000q-5.171875 2.500000 -13.093750 2.500000l0.000000 -3.515625q12.265625 0.000000 18.515625 -6.406250l1.406250 0.000000q0.343750 0.000000 0.656250 0.281250q0.328125 0.265625 0.328125 0.609375l0.000000 59.031250q0.000000 3.171875 12.500000 3.171875l0.000000 3.515625z"/>
<path id="c_f47f2818876b2f1a61c47f270461e46e" d="M25.000000 2.203125q-12.250000 0.000000 -16.671875 -10.078125q-4.421875 -10.093750 -4.421875 -24.015625q0.000000 -8.687500 1.578125 -16.343750q1.593750 -7.671875 6.296875 -13.015625q4.718750 -5.359375 13.218750 -5.359375q6.593750 0.000000 10.781250 3.234375q4.203125 3.218750 6.406250 8.328125q2.203125 5.093750 3.000000 10.937500q0.812500 5.828125 0.812500 12.218750q0.000000 8.593750 -1.593750 16.093750q-1.578125 7.500000 -6.218750 12.750000q-4.640625 5.250000 -13.187500 5.250000M25.000000 -0.390625q5.562500 0.000000 8.296875 -5.703125q2.734375 -5.718750 3.375000 -12.656250q0.640625 -6.937500 0.640625 -14.750000q0.000000 -7.515625 -0.640625 -13.859375q-0.640625 -6.359375 -3.359375 -11.500000q-2.703125 -5.156250 -8.312500 -5.156250q-5.656250 0.000000 -8.390625 5.187500q-2.734375 5.171875 -3.375000 11.500000q-0.640625 6.312500 -0.640625 13.828125q0.000000 5.562500 0.265625 10.500000q0.281250 4.937500 1.453125 10.187500q1.171875 5.250000 3.781250 8.843750q2.609375 3.578125 6.906250 3.578125"/>
<path id="c_61c20b1e4c944de7566e5fda525fb070" d="M10.203125 -23.000000q-0.828125 0.000000 -1.375000 -0.625000q-0.531250 -0.640625 -0.531250 -1.375000q0.000000 -0.734375 0.531250 -1.359375q0.546875 -0.640625 1.375000 -0.640625l57.375000 0.000000q0.781250 0.000000 1.296875 0.640625q0.515625 0.625000 0.515625 1.359375q0.000000 0.734375 -0.515625 1.375000q-0.515625 0.625000 -1.296875 0.625000z"/>
<path id="c_36f5d43a935cae5fbcd59d0f37371627" d="M17.390625 -2.593750q0.000000 -5.562500 0.968750 -10.875000q0.984375 -5.328125 2.859375 -10.531250q1.875000 -5.203125 4.531250 -10.203125q2.671875 -5.000000 5.843750 -9.406250l9.125000 -12.687500l-11.421875 0.000000q-17.765625 0.000000 -18.312500 0.484375q-1.312500 1.609375 -2.484375 9.234375l-2.890625 0.000000l3.281250 -21.000000l2.921875 0.000000l0.000000 0.296875q0.000000 1.796875 6.109375 2.343750q6.109375 0.531250 11.968750 0.531250l18.593750 0.000000l0.000000 2.593750q0.000000 0.093750 -0.031250 0.140625q-0.015625 0.046875 -0.062500 0.140625l-13.765625 19.343750q-5.078125 7.515625 -6.359375 16.703125q-1.265625 9.171875 -1.265625 22.890625q0.000000 1.953125 -1.421875 3.375000q-1.406250 1.421875 -3.359375 1.421875q-2.000000 0.000000 -3.421875 -1.421875q-1.406250 -1.421875 -1.406250 -3.375000"/>
<path id="c_439964be9e9f5a11ea84f1c0bd1fc39b" d="M7.718750 -1.703125q0.000000 -0.593750 0.093750 -0.890625l7.468750 -29.828125q0.734375 -2.781250 0.734375 -4.890625q0.000000 -4.296875 -2.921875 -4.296875q-3.125000 0.000000 -4.640625 3.750000q-1.515625 3.734375 -2.937500 9.437500q0.000000 0.296875 -0.296875 0.468750q-0.281250 0.171875 -0.531250 0.171875l-1.171875 0.000000q-0.343750 0.000000 -0.593750 -0.359375q-0.234375 -0.375000 -0.234375 -0.671875q1.078125 -4.343750 2.078125 -7.359375q1.000000 -3.031250 3.125000 -5.515625q2.125000 -2.500000 5.296875 -2.500000q3.468750 0.000000 6.078125 2.000000q2.609375 2.000000 3.250000 5.265625q2.531250 -3.312500 5.781250 -5.281250q3.250000 -1.984375 7.109375 -1.984375q3.171875 0.000000 5.578125 1.859375q2.421875 1.843750 2.421875 5.015625q0.000000 2.546875 -1.593750 4.437500q-1.578125 1.875000 -4.218750 1.875000q-1.609375 0.000000 -2.703125 -1.000000q-1.093750 -1.015625 -1.093750 -2.625000q0.000000 -2.187500 1.609375 -3.921875q1.609375 -1.734375 3.703125 -1.734375q-1.609375 -1.328125 -3.906250 -1.328125q-4.296875 0.000000 -7.468750 3.062500q-3.171875 3.046875 -5.718750 7.734375l-7.125000 28.609375q-0.343750 1.375000 -1.546875 2.343750q-1.187500 0.984375 -2.656250 0.984375q-1.218750 0.000000 -2.093750 -0.781250q-0.875000 -0.781250 -0.875000 -2.046875"/>
<path id="c_62db141412f5d9d8ddcda81385ac812d" d="M5.609375 23.000000q0.000000 -0.296875 0.109375 -0.390625l34.765625 -96.390625q0.187500 -0.578125 0.671875 -0.890625q0.500000 -0.328125 1.125000 -0.328125q0.890625 0.000000 1.437500 0.546875q0.562500 0.531250 0.562500 1.453125l0.000000 0.390625l-34.765625 96.390625q-0.578125 1.218750 -1.890625 1.218750q-0.843750 0.000000 -1.437500 -0.593750q-0.578125 -0.578125 -0.578125 -1.406250"/>
<path id="c_75c38898ea241ebcbd0918e2320a1d61" d="M8.687500 -6.109375q2.687500 4.593750 10.796875 4.593750q3.515625 0.000000 6.687500 -1.187500q3.171875 -1.203125 5.250000 -3.593750q2.078125 -2.390625 2.078125 -5.812500q0.000000 -2.593750 -1.859375 -4.250000q-1.859375 -1.656250 -4.546875 -2.250000l-5.406250 -1.062500q-3.718750 -0.937500 -6.109375 -3.468750q-2.390625 -2.546875 -2.390625 -6.156250q0.000000 -4.437500 2.406250 -7.859375q2.421875 -3.421875 6.375000 -5.218750q3.953125 -1.812500 8.203125 -1.812500q4.546875 0.000000 8.125000 2.171875q3.593750 2.171875 3.593750 6.421875q0.000000 2.296875 -1.296875 4.062500q-1.281250 1.750000 -3.578125 1.750000q-1.328125 0.000000 -2.281250 -0.859375q-0.937500 -0.859375 -0.937500 -2.171875q0.000000 -1.171875 0.656250 -2.265625q0.656250 -1.109375 1.750000 -1.765625q1.109375 -0.656250 2.281250 -0.656250q-0.890625 -2.156250 -3.312500 -3.125000q-2.406250 -0.984375 -5.187500 -0.984375q-2.546875 0.000000 -5.093750 1.031250q-2.531250 1.031250 -4.078125 3.015625q-1.531250 1.968750 -1.531250 4.656250q0.000000 1.796875 1.265625 3.171875q1.281250 1.359375 3.140625 1.953125l5.812500 1.171875q2.781250 0.578125 5.093750 2.078125q2.328125 1.484375 3.656250 3.765625q1.343750 2.265625 1.343750 5.187500q0.000000 3.718750 -2.078125 7.328125q-2.062500 3.609375 -5.093750 5.765625q-5.328125 3.609375 -13.031250 3.609375q-5.328125 0.000000 -9.781250 -2.437500q-4.437500 -2.453125 -4.437500 -7.281250q0.000000 -2.734375 1.578125 -4.750000q1.593750 -2.031250 4.328125 -2.031250q1.625000 0.000000 2.718750 0.984375q1.093750 0.968750 1.093750 2.578125q0.000000 2.296875 -1.718750 4.000000q-1.703125 1.703125 -3.984375 1.703125z"/>
<path id="c_b07d6f11a21858567942a721216c1186" d="M11.718750 -11.921875q0.000000 4.359375 2.218750 7.390625q2.218750 3.015625 6.375000 3.015625q5.953125 0.000000 11.437500 -2.734375q5.500000 -2.734375 8.968750 -7.562500q0.296875 -0.296875 0.781250 -0.296875q0.500000 0.000000 1.000000 0.562500q0.515625 0.562500 0.515625 1.046875q0.000000 0.390625 -0.187500 0.593750q-3.671875 5.125000 -9.875000 8.078125q-6.187500 2.953125 -12.828125 2.953125q-4.796875 0.000000 -8.453125 -2.265625q-3.656250 -2.281250 -5.671875 -6.078125q-2.000000 -3.812500 -2.000000 -8.609375q0.000000 -6.734375 3.765625 -13.375000q3.765625 -6.640625 10.015625 -10.812500q6.250000 -4.171875 13.125000 -4.171875q4.500000 0.000000 8.078125 2.171875q3.593750 2.171875 3.593750 6.421875q0.000000 2.734375 -1.593750 4.671875q-1.578125 1.921875 -4.265625 1.921875q-1.609375 0.000000 -2.718750 -1.000000q-1.093750 -1.000000 -1.093750 -2.625000q0.000000 -2.343750 1.703125 -4.000000q1.718750 -1.656250 4.015625 -1.656250l0.187500 0.000000q-1.171875 -1.703125 -3.390625 -2.515625q-2.218750 -0.812500 -4.609375 -0.812500q-5.859375 0.000000 -10.265625 5.015625q-4.390625 5.000000 -6.609375 11.968750q-2.218750 6.953125 -2.218750 12.703125"/>
<path id="c_560614b1ec0287947e12f151dc8b925e" d="M7.718750 -1.703125q0.000000 -0.593750 0.093750 -0.890625l7.468750 -29.828125q0.734375 -2.781250 0.734375 -4.890625q0.000000 -4.296875 -2.921875 -4.296875q-3.125000 0.000000 -4.640625 3.750000q-1.515625 3.734375 -2.937500 9.437500q0.000000 0.296875 -0.296875 0.468750q-0.281250 0.171875 -0.531250 0.171875l-1.171875 0.000000q-0.343750 0.000000 -0.593750 -0.359375q-0.234375 -0.375000 -0.234375 -0.671875q1.078125 -4.343750 2.078125 -7.359375q1.000000 -3.031250 3.125000 -5.515625q2.125000 -2.500000 5.296875 -2.500000q3.750000 0.000000 6.625000 2.375000q2.890625 2.359375 2.890625 6.015625q2.984375 -3.906250 6.984375 -6.140625q4.000000 -2.250000 8.500000 -2.250000q4.734375 0.000000 8.171875 2.421875q3.453125 2.406250 3.453125 6.859375q3.062500 -4.359375 7.187500 -6.812500q4.140625 -2.468750 9.015625 -2.468750q5.171875 0.000000 8.312500 2.812500q3.156250 2.796875 3.156250 7.968750q0.000000 4.109375 -1.828125 9.921875q-1.828125 5.812500 -4.562500 12.984375q-1.421875 3.468750 -1.421875 6.000000q0.000000 2.984375 2.343750 2.984375q3.906250 0.000000 6.500000 -4.187500q2.593750 -4.203125 3.656250 -9.000000q0.296875 -0.578125 0.843750 -0.578125l1.171875 0.000000q0.390625 0.000000 0.656250 0.265625q0.265625 0.265625 0.265625 0.609375q0.000000 0.093750 -0.093750 0.296875q-1.375000 5.656250 -4.765625 10.453125q-3.390625 4.781250 -8.468750 4.781250q-3.515625 0.000000 -6.015625 -2.421875q-2.484375 -2.421875 -2.484375 -5.875000q0.000000 -1.765625 0.828125 -3.906250q2.828125 -7.531250 4.703125 -13.437500q1.890625 -5.906250 1.890625 -10.390625q0.000000 -2.796875 -1.125000 -4.750000q-1.125000 -1.953125 -3.750000 -1.953125q-5.468750 0.000000 -9.484375 3.359375q-4.000000 3.343750 -6.921875 8.859375q-0.203125 0.968750 -0.296875 1.515625l-6.453125 25.671875q-0.343750 1.375000 -1.546875 2.343750q-1.187500 0.984375 -2.640625 0.984375q-1.171875 0.000000 -2.078125 -0.781250q-0.906250 -0.781250 -0.906250 -2.046875q0.000000 -0.593750 0.093750 -0.890625l6.406250 -25.484375q1.015625 -4.093750 1.015625 -6.828125q0.000000 -2.796875 -1.156250 -4.750000q-1.140625 -1.953125 -3.875000 -1.953125q-3.656250 0.000000 -6.734375 1.625000q-3.078125 1.609375 -5.375000 4.265625q-2.296875 2.656250 -4.187500 6.328125l-6.796875 27.187500q-0.343750 1.375000 -1.546875 2.343750q-1.187500 0.984375 -2.656250 0.984375q-1.218750 0.000000 -2.093750 -0.781250q-0.875000 -0.781250 -0.875000 -2.046875"/>
<path id="c_1210e7f4d85518601ea3049211d562d0" d="M4.984375 -0.000000l0.000000 -2.687500q0.000000 -0.250000 0.187500 -0.531250l15.531250 -17.187500q3.515625 -3.812500 5.703125 -6.390625q2.203125 -2.593750 4.343750 -5.968750q2.156250 -3.375000 3.406250 -6.859375q1.250000 -3.484375 1.250000 -7.390625q0.000000 -4.109375 -1.515625 -7.843750q-1.515625 -3.734375 -4.515625 -5.984375q-3.000000 -2.250000 -7.250000 -2.250000q-4.343750 0.000000 -7.812500 2.625000q-3.468750 2.609375 -4.890625 6.750000q0.390625 -0.093750 1.078125 -0.093750q2.250000 0.000000 3.828125 1.515625q1.593750 1.515625 1.593750 3.906250q0.000000 2.296875 -1.593750 3.890625q-1.578125 1.578125 -3.828125 1.578125q-2.343750 0.000000 -3.937500 -1.625000q-1.578125 -1.640625 -1.578125 -3.843750q0.000000 -3.765625 1.406250 -7.046875q1.421875 -3.296875 4.078125 -5.859375q2.671875 -2.578125 6.015625 -3.937500q3.343750 -1.375000 7.093750 -1.375000q5.718750 0.000000 10.640625 2.421875q4.937500 2.421875 7.812500 6.843750q2.890625 4.406250 2.890625 10.328125q0.000000 4.343750 -1.906250 8.250000q-1.906250 3.906250 -4.890625 7.109375q-2.968750 3.187500 -7.609375 7.250000q-4.640625 4.046875 -6.093750 5.406250l-11.328125 10.890625l9.609375 0.000000q7.078125 0.000000 11.843750 -0.109375q4.765625 -0.125000 5.046875 -0.375000q1.171875 -1.265625 2.406250 -9.234375l2.921875 0.000000l-2.828125 17.828125z"/>
</defs>
<g id="mathtext2">
<g style="fill: #000000" transform="translate(27.593750,287.000000)rotate(-90.0)">
<use xlink:href="#c_de39f0a09a21a7fd110da32e008bba47" transform="translate(0.000000,-3.093750)scale(0.120000)"/>
<use xlink:href="#c_8b6646949194adb0e90a6189c9da3b04" transform="translate(7.716797,-3.093750)scale(0.120000)"/>
<use xlink:href="#c_ada8429b49f97e9b59ddeeed8d06fc73" transform="translate(11.291016,-3.093750)scale(0.120000)"/>
<use xlink:href="#c_277960698c3e9ebfcde4d2161536ce57" transform="translate(18.152344,-3.093750)scale(0.120000)"/>
<use xlink:href="#c_875268a6b49edebf59503602ec79e30e" transform="translate(25.001953,-3.093750)scale(0.120000)"/>
<use xlink:href="#c_1a459ac34855d27ec37ccb0e66298d36" transform="translate(28.324219,-3.093750)scale(0.120000)"/>
<use xlink:href="#c_f47f2818876b2f1a61c47f270461e46e" transform="translate(34.324219,-3.093750)scale(0.120000)"/>
<use xlink:href="#c_61c20b1e4c944de7566e5fda525fb070" transform="translate(40.324219,-8.195625)scale(0.084000)"/>
<use xlink:href="#c_1a459ac34855d27ec37ccb0e66298d36" transform="translate(46.849805,-8.195625)scale(0.084000)"/>
<use xlink:href="#c_36f5d43a935cae5fbcd59d0f37371627" transform="translate(51.049805,-8.195625)scale(0.084000)"/>
<use xlink:href="#c_67a1adfdf9fbdb7189c9402c3f73ee06" transform="translate(57.290555,-3.093750)scale(0.120000)"/>
<use xlink:href="#c_439964be9e9f5a11ea84f1c0bd1fc39b" transform="translate(62.868680,-3.093750)scale(0.120000)"/>
<use xlink:href="#c_bbd98d2466ee4a4cd0618ec33b05d571" transform="translate(68.282742,-3.093750)scale(0.120000)"/>
<use xlink:href="#c_62db141412f5d9d8ddcda81385ac812d" transform="translate(74.007352,-3.093750)scale(0.120000)"/>
<use xlink:href="#c_75c38898ea241ebcbd0918e2320a1d61" transform="translate(80.007352,-3.093750)scale(0.120000)"/>
<use xlink:href="#c_62db141412f5d9d8ddcda81385ac812d" transform="translate(85.620633,-3.093750)scale(0.120000)"/>
<use xlink:href="#c_b07d6f11a21858567942a721216c1186" transform="translate(91.620633,-3.093750)scale(0.120000)"/>
<use xlink:href="#c_560614b1ec0287947e12f151dc8b925e" transform="translate(96.806180,-3.093750)scale(0.120000)"/>
<use xlink:href="#c_1210e7f4d85518601ea3049211d562d0" transform="translate(107.341336,-8.195625)scale(0.084000)"/>
<use xlink:href="#c_62db141412f5d9d8ddcda81385ac812d" transform="translate(115.382086,-3.093750)scale(0.120000)"/>
<use xlink:href="#c_c5a9fef654eb9e987f621c86ed1a9b2e" transform="translate(124.038336,-11.343750)scale(0.060000)"/>
<use xlink:href="#c_53145adbfd3ed9c233deb3507c6765d3" transform="translate(121.382086,-3.093750)scale(0.120000)"/>
<use xlink:href="#c_eb1537f7a8ede276addc63084ba564df" transform="translate(129.585211,-3.093750)scale(0.120000)"/>
</g>
</g>
</g>
</g>
<g id="patch3">
<path style="fill: none; stroke: #000000; stroke-width: 1.000000; stroke-linejoin: round; stroke-linecap: square;  opacity: 1.000000"  d="M73.125000 44.100000L526.500000 44.100000"/>
</g>
<g id="patch4">
<path style="fill: none; stroke: #000000; stroke-width: 1.000000; stroke-linejoin: round; stroke-linecap: square;  opacity: 1.000000"  d="M526.500000 396.900000L526.500000 44.100000"/>
</g>
<g id="patch5">
<path style="fill: none; stroke: #000000; stroke-width: 1.000000; stroke-linejoin: round; stroke-linecap: square;  opacity: 1.000000"  d="M73.125000 396.900000L526.500000 396.900000"/>
</g>
<g id="patch6">
<path style="fill: none; stroke: #000000; stroke-width: 1.000000; stroke-linejoin: round; stroke-linecap: square;  opacity: 1.000000"  d="M73.125000 396.900000L73.125000 44.100000"/>
</g>
<g id="text8">
<defs>
<path id="c_53989f37671240acb447bc6046631699" d="M50.984375 16.609375l0.000000 6.968750l-51.968750 0.000000l0.000000 -6.968750z"/>
<path id="c_f05dd90d41f04bb96ef1ca503cc2044b" d="M30.609375 -48.390625q-7.218750 0.000000 -11.421875 5.640625q-4.203125 5.640625 -4.203125 15.453125q0.000000 9.812500 4.171875 15.453125q4.187500 5.640625 11.453125 5.640625q7.187500 0.000000 11.375000 -5.656250q4.203125 -5.671875 4.203125 -15.437500q0.000000 -9.718750 -4.203125 -15.406250q-4.187500 -5.687500 -11.375000 -5.687500M30.609375 -56.000000q11.718750 0.000000 18.406250 7.625000q6.703125 7.609375 6.703125 21.078125q0.000000 13.421875 -6.703125 21.078125q-6.687500 7.640625 -18.406250 7.640625q-11.765625 0.000000 -18.437500 -7.640625q-6.656250 -7.656250 -6.656250 -21.078125q0.000000 -13.468750 6.656250 -21.078125q6.671875 -7.625000 18.437500 -7.625000"/>
<path id="c_6ec8d5749226675394676a5d2a3b468b" d="M41.109375 -46.296875q-1.515625 -0.875000 -3.296875 -1.281250q-1.781250 -0.421875 -3.921875 -0.421875q-7.625000 0.000000 -11.703125 4.953125q-4.078125 4.953125 -4.078125 14.234375l0.000000 28.812500l-9.031250 0.000000l0.000000 -54.687500l9.031250 0.000000l0.000000 8.500000q2.843750 -4.984375 7.375000 -7.390625q4.546875 -2.421875 11.046875 -2.421875q0.921875 0.000000 2.046875 0.125000q1.125000 0.109375 2.484375 0.359375z"/>
<path id="c_6a63bda47b2f3da1cec6aadd80692cfe" d="M9.421875 -54.687500l8.984375 0.000000l0.000000 54.687500l-8.984375 0.000000zM9.421875 -75.984375l8.984375 0.000000l0.000000 11.390625l-8.984375 0.000000z"/>
<path id="c_ed3e21196fb739f392806f09ca0594ef" d="M10.687500 -12.406250l10.312500 0.000000l0.000000 12.406250l-10.312500 0.000000z"/>
<path id="c_73b12fe3945075d29fe0cc9a468fa31e" d="M37.109375 -75.984375l0.000000 7.484375l-8.593750 0.000000q-4.828125 0.000000 -6.718750 1.953125q-1.875000 1.953125 -1.875000 7.031250l0.000000 4.828125l14.796875 0.000000l0.000000 6.984375l-14.796875 0.000000l0.000000 47.703125l-9.031250 0.000000l0.000000 -47.703125l-8.593750 0.000000l0.000000 -6.984375l8.593750 0.000000l0.000000 -3.812500q0.000000 -9.125000 4.250000 -13.296875q4.250000 -4.187500 13.468750 -4.187500z"/>
<path id="c_0f8c41144cfbf448378cb6fd1cc8e549" d="M18.312500 -70.218750l0.000000 15.531250l18.500000 0.000000l0.000000 6.984375l-18.500000 0.000000l0.000000 29.687500q0.000000 6.687500 1.828125 8.593750q1.828125 1.906250 7.453125 1.906250l9.218750 0.000000l0.000000 7.515625l-9.218750 0.000000q-10.406250 0.000000 -14.359375 -3.875000q-3.953125 -3.890625 -3.953125 -14.140625l0.000000 -29.687500l-6.593750 0.000000l0.000000 -6.984375l6.593750 0.000000l0.000000 -15.531250z"/>
</defs>
<g style="fill: #000000; opacity: 1.000000" transform="translate(268.781250,35.803125)scale(0.144000)">
<use xlink:href="#c_ed3f3ed3ebfbd18bcb9c012009a68ad1"/>
<use xlink:href="#c_1260a2df50f305f3db244e29828f968e" x="63.623047"/>
<use xlink:href="#c_53989f37671240acb447bc6046631699" x="127.246094"/>
<use xlink:href="#c_f05dd90d41f04bb96ef1ca503cc2044b" x="177.246094"/>
<use xlink:href="#c_6ec8d5749226675394676a5d2a3b468b" x="238.427734"/>
<use xlink:href="#c_6a63bda47b2f3da1cec6aadd80692cfe" x="279.541016"/>
<use xlink:href="#c_ed3e21196fb739f392806f09ca0594ef" x="307.324219"/>
<use xlink:href="#c_73b12fe3945075d29fe0cc9a468fa31e" x="339.111328"/>
<use xlink:href="#c_6a63bda47b2f3da1cec6aadd80692cfe" x="374.316406"/>
<use xlink:href="#c_0f8c41144cfbf448378cb6fd1cc8e549" x="402.099609"/>
</g>
</g>
</g>
</g>
</svg>
